# xmcd
#
# Track frame offsets: 
#        150
#        10029
#        22870
#        34598
#        45799
#        55470
#        67766
#        79228
#        90785
#        101593
#        111987
#        123251
#        135527
#        147766
#        158904
#        169991
#        181027
#        189009
#        198081
#        207761
#        211981
#        221228
#        234336
#        246398
#        258595
#
# Disc length: 3568 seconds
#
# Revision: 0
# Processed by: cddbd v1.4PL0 Copyright (c) Steve Scherf et al.
# Submitted via: ExactAudioCopy v0.90b4
#
DISCID=430dee19
DTITLE=Johnny Cash - The Greatest Hits, CD3
DYEAR=2002
DGENRE=
TTITLE0=Rock Island Line (Trad)
TTITLE1=Next In Line
TTITLE2=Big River
TTITLE3=Belshazar
TTITLE4=Come In Stranger (Alt)
TTITLE5=Goodnight Irene
TTITLE6=Don't Make Me Go
TTITLE7=Folsom Prison Blues
TTITLE8=Cold, Cold Heart
TTITLE9=Get Rhythm
TTITLE10=The Ways Of A Woman In Love (Alt)
TTITLE11=You're The Nearest Thing In Heaven
TTITLE12=Home Of The Blues
TTITLE13=I Heard That Lonesome Whistle Blow
TTITLE14=Wide Open Road
TTITLE15=I Just Thought You'd Like To Know
TTITLE16=If The God's Lord Willing
TTITLE17=Katy Too
TTITLE18=New Mexico
TTITLE19=One More Ride
TTITLE20=Remember Me (I'm The One Who Loves You)
TTITLE21=You Win Again
TTITLE22=Thanks A Lot
TTITLE23=I Walk The Line
TTITLE24=Two Timin' Woman
EXTD=
EXTT0=
EXTT1=
EXTT2=
EXTT3=
EXTT4=
EXTT5=
EXTT6=
EXTT7=
EXTT8=
EXTT9=
EXTT10=
EXTT11=
EXTT12=
EXTT13=
EXTT14=
EXTT15=
EXTT16=
EXTT17=
EXTT18=
EXTT19=
EXTT20=
EXTT21=
EXTT22=
EXTT23=
EXTT24=
PLAYORDER=
